<mxfile host="app.diagrams.net" modified="2023-08-24T11:35:55.900Z" agent="Mozilla/5.0 (Macintosh; Intel Mac OS X 10_15_7) AppleWebKit/537.36 (KHTML, like Gecko) Chrome/116.0.0.0 Safari/537.36" etag="7Y0rsWVBkcAOVso7Naxl" version="21.6.8" type="github">
  <diagram id="prtHgNgQTEPvFCAcTncT" name="Page-1">
    <mxGraphModel dx="831" dy="703" grid="1" gridSize="10" guides="1" tooltips="1" connect="1" arrows="1" fold="1" page="1" pageScale="1" pageWidth="827" pageHeight="1169" math="0" shadow="0">
      <root>
        <mxCell id="0" />
        <mxCell id="1" parent="0" />
        <mxCell id="3PiSw-Tck_jEQAGwevaD-3" value="&lt;p&gt;&lt;br&gt;&lt;/p&gt;" style="rounded=0;whiteSpace=wrap;html=1;" vertex="1" parent="1">
          <mxGeometry x="180" y="160" width="520" height="470" as="geometry" />
        </mxCell>
        <mxCell id="3PiSw-Tck_jEQAGwevaD-4" value="" style="rounded=1;whiteSpace=wrap;html=1;" vertex="1" parent="1">
          <mxGeometry x="290" y="200" width="320" height="60" as="geometry" />
        </mxCell>
        <mxCell id="3PiSw-Tck_jEQAGwevaD-5" value="" style="rounded=1;whiteSpace=wrap;html=1;" vertex="1" parent="1">
          <mxGeometry x="290" y="360" width="320" height="120" as="geometry" />
        </mxCell>
        <mxCell id="3PiSw-Tck_jEQAGwevaD-6" value="" style="rounded=1;whiteSpace=wrap;html=1;" vertex="1" parent="1">
          <mxGeometry x="290" y="275" width="320" height="60" as="geometry" />
        </mxCell>
        <mxCell id="3PiSw-Tck_jEQAGwevaD-9" value="客户端" style="rounded=0;whiteSpace=wrap;html=1;" vertex="1" parent="1">
          <mxGeometry x="320" y="210" width="110" height="40" as="geometry" />
        </mxCell>
        <mxCell id="3PiSw-Tck_jEQAGwevaD-10" value="浏览器" style="rounded=0;whiteSpace=wrap;html=1;" vertex="1" parent="1">
          <mxGeometry x="460" y="210" width="110" height="40" as="geometry" />
        </mxCell>
        <mxCell id="3PiSw-Tck_jEQAGwevaD-11" value="前端" style="text;html=1;strokeColor=none;fillColor=none;align=center;verticalAlign=middle;whiteSpace=wrap;rounded=0;" vertex="1" parent="1">
          <mxGeometry x="200" y="210" width="60" height="30" as="geometry" />
        </mxCell>
        <mxCell id="3PiSw-Tck_jEQAGwevaD-12" value="协议层" style="text;html=1;strokeColor=none;fillColor=none;align=center;verticalAlign=middle;whiteSpace=wrap;rounded=0;" vertex="1" parent="1">
          <mxGeometry x="200" y="305" width="60" height="30" as="geometry" />
        </mxCell>
        <mxCell id="3PiSw-Tck_jEQAGwevaD-13" value="HTTPS" style="rounded=0;whiteSpace=wrap;html=1;" vertex="1" parent="1">
          <mxGeometry x="320" y="285" width="110" height="40" as="geometry" />
        </mxCell>
        <mxCell id="3PiSw-Tck_jEQAGwevaD-14" value="RPC" style="rounded=0;whiteSpace=wrap;html=1;" vertex="1" parent="1">
          <mxGeometry x="460" y="285" width="110" height="40" as="geometry" />
        </mxCell>
        <mxCell id="3PiSw-Tck_jEQAGwevaD-15" value="Gin" style="rounded=0;whiteSpace=wrap;html=1;" vertex="1" parent="1">
          <mxGeometry x="320" y="370" width="110" height="40" as="geometry" />
        </mxCell>
        <mxCell id="3PiSw-Tck_jEQAGwevaD-16" value="业务层" style="text;html=1;strokeColor=none;fillColor=none;align=center;verticalAlign=middle;whiteSpace=wrap;rounded=0;" vertex="1" parent="1">
          <mxGeometry x="200" y="380" width="60" height="30" as="geometry" />
        </mxCell>
        <mxCell id="3PiSw-Tck_jEQAGwevaD-20" value="" style="rounded=1;whiteSpace=wrap;html=1;" vertex="1" parent="1">
          <mxGeometry x="294" y="540" width="316" height="60" as="geometry" />
        </mxCell>
        <mxCell id="3PiSw-Tck_jEQAGwevaD-21" value="存储层" style="text;html=1;strokeColor=none;fillColor=none;align=center;verticalAlign=middle;whiteSpace=wrap;rounded=0;" vertex="1" parent="1">
          <mxGeometry x="195" y="550" width="70" height="30" as="geometry" />
        </mxCell>
        <mxCell id="3PiSw-Tck_jEQAGwevaD-22" value="Redis" style="rounded=0;whiteSpace=wrap;html=1;" vertex="1" parent="1">
          <mxGeometry x="304" y="550" width="76" height="40" as="geometry" />
        </mxCell>
        <mxCell id="3PiSw-Tck_jEQAGwevaD-23" value="MongoDB" style="rounded=0;whiteSpace=wrap;html=1;" vertex="1" parent="1">
          <mxGeometry x="395" y="550" width="90" height="40" as="geometry" />
        </mxCell>
        <mxCell id="3PiSw-Tck_jEQAGwevaD-25" value="MariaDB" style="rounded=0;whiteSpace=wrap;html=1;" vertex="1" parent="1">
          <mxGeometry x="495" y="550" width="85" height="40" as="geometry" />
        </mxCell>
        <mxCell id="3PiSw-Tck_jEQAGwevaD-26" value="Gorm" style="rounded=0;whiteSpace=wrap;html=1;" vertex="1" parent="1">
          <mxGeometry x="460" y="370" width="110" height="40" as="geometry" />
        </mxCell>
        <mxCell id="3PiSw-Tck_jEQAGwevaD-27" value="Ladon" style="rounded=0;whiteSpace=wrap;html=1;" vertex="1" parent="1">
          <mxGeometry x="320" y="430" width="110" height="40" as="geometry" />
        </mxCell>
      </root>
    </mxGraphModel>
  </diagram>
</mxfile>
